<?xml version="1.0" encoding="UTF-8"?>
<!--Generator: Apple Native CoreSVG 175.5-->
<!DOCTYPE svg
PUBLIC "-//W3C//DTD SVG 1.1//EN"
       "http://www.w3.org/Graphics/SVG/1.1/DTD/svg11.dtd">
<svg version="1.1" xmlns="http://www.w3.org/2000/svg" xmlns:xlink="http://www.w3.org/1999/xlink" width="3300" height="2200">
 <!--glyph: "uni10005F.medium", point size: 100.0, font version: "18.0d12e2", template writer version: "101"-->
 <g id="Notes">
  <rect height="2200" id="artboard" style="fill:white;opacity:1" width="3300" x="0" y="0"/>
  <line style="fill:none;stroke:black;opacity:1;stroke-width:0.5;" x1="263" x2="3036" y1="292" y2="292"/>
  <text style="stroke:none;fill:black;font-family:sans-serif;font-size:13;font-weight:bold;" transform="matrix(1 0 0 1 263 322)">Weight/Scale Variations</text>
  <text style="stroke:none;fill:black;font-family:sans-serif;font-size:13;text-anchor:middle;" transform="matrix(1 0 0 1 559.711 322)">Ultralight</text>
  <text style="stroke:none;fill:black;font-family:sans-serif;font-size:13;text-anchor:middle;" transform="matrix(1 0 0 1 856.422 322)">Thin</text>
  <text style="stroke:none;fill:black;font-family:sans-serif;font-size:13;text-anchor:middle;" transform="matrix(1 0 0 1 1153.13 322)">Light</text>
  <text style="stroke:none;fill:black;font-family:sans-serif;font-size:13;text-anchor:middle;" transform="matrix(1 0 0 1 1449.84 322)">Regular</text>
  <text style="stroke:none;fill:black;font-family:sans-serif;font-size:13;text-anchor:middle;" transform="matrix(1 0 0 1 1746.56 322)">Medium</text>
  <text style="stroke:none;fill:black;font-family:sans-serif;font-size:13;text-anchor:middle;" transform="matrix(1 0 0 1 2043.27 322)">Semibold</text>
  <text style="stroke:none;fill:black;font-family:sans-serif;font-size:13;text-anchor:middle;" transform="matrix(1 0 0 1 2339.98 322)">Bold</text>
  <text style="stroke:none;fill:black;font-family:sans-serif;font-size:13;text-anchor:middle;" transform="matrix(1 0 0 1 2636.69 322)">Heavy</text>
  <text style="stroke:none;fill:black;font-family:sans-serif;font-size:13;text-anchor:middle;" transform="matrix(1 0 0 1 2933.4 322)">Black</text>
  <line style="fill:none;stroke:black;opacity:1;stroke-width:0.5;" x1="263" x2="3036" y1="1903" y2="1903"/>
  <g transform="matrix(1 0 0 1 263 1933)">
   <path d="M9.24805 0.830078C13.5547 0.830078 17.1387-2.74414 17.1387-7.05078C17.1387-11.3574 13.5449-14.9316 9.23828-14.9316C4.94141-14.9316 1.36719-11.3574 1.36719-7.05078C1.36719-2.74414 4.95117 0.830078 9.24805 0.830078ZM9.24805-0.654297C5.70312-0.654297 2.87109-3.49609 2.87109-7.05078C2.87109-10.6055 5.69336-13.4473 9.23828-13.4473C12.793-13.4473 15.6445-10.6055 15.6445-7.05078C15.6445-3.49609 12.8027-0.654297 9.24805-0.654297ZM5.6543-7.05078C5.6543-6.62109 5.95703-6.32812 6.40625-6.32812L8.50586-6.32812L8.50586-4.20898C8.50586-3.76953 8.79883-3.4668 9.22852-3.4668C9.67773-3.4668 9.9707-3.76953 9.9707-4.20898L9.9707-6.32812L12.0898-6.32812C12.5293-6.32812 12.832-6.62109 12.832-7.05078C12.832-7.49023 12.5293-7.79297 12.0898-7.79297L9.9707-7.79297L9.9707-9.90234C9.9707-10.3516 9.67773-10.6543 9.22852-10.6543C8.79883-10.6543 8.50586-10.3516 8.50586-9.90234L8.50586-7.79297L6.40625-7.79297C5.95703-7.79297 5.6543-7.49023 5.6543-7.05078Z"/>
  </g>
  <g transform="matrix(1 0 0 1 281.867 1933)">
   <path d="M11.709 2.91016C17.1582 2.91016 21.6699-1.61133 21.6699-7.05078C21.6699-12.5 17.1484-17.0117 11.6992-17.0117C6.25977-17.0117 1.74805-12.5 1.74805-7.05078C1.74805-1.61133 6.26953 2.91016 11.709 2.91016ZM11.709 1.25C7.09961 1.25 3.41797-2.44141 3.41797-7.05078C3.41797-11.6602 7.08984-15.3516 11.6992-15.3516C16.3086-15.3516 20.0098-11.6602 20.0098-7.05078C20.0098-2.44141 16.3184 1.25 11.709 1.25ZM7.17773-7.05078C7.17773-6.57227 7.50977-6.25 8.00781-6.25L10.8789-6.25L10.8789-3.36914C10.8789-2.88086 11.2109-2.53906 11.6895-2.53906C12.1777-2.53906 12.5195-2.87109 12.5195-3.36914L12.5195-6.25L15.4004-6.25C15.8887-6.25 16.2305-6.57227 16.2305-7.05078C16.2305-7.53906 15.8887-7.88086 15.4004-7.88086L12.5195-7.88086L12.5195-10.752C12.5195-11.25 12.1777-11.5918 11.6895-11.5918C11.2109-11.5918 10.8789-11.25 10.8789-10.752L10.8789-7.88086L8.00781-7.88086C7.50977-7.88086 7.17773-7.53906 7.17773-7.05078Z"/>
  </g>
  <g transform="matrix(1 0 0 1 305.646 1933)">
   <path d="M14.9707 5.66406C21.9336 5.66406 27.6953-0.0976562 27.6953-7.05078C27.6953-14.0137 21.9238-19.7754 14.9609-19.7754C8.00781-19.7754 2.25586-14.0137 2.25586-7.05078C2.25586-0.0976562 8.01758 5.66406 14.9707 5.66406ZM14.9707 3.84766C8.93555 3.84766 4.08203-1.01562 4.08203-7.05078C4.08203-13.0957 8.92578-17.9492 14.9609-17.9492C21.0059-17.9492 25.8691-13.0957 25.8691-7.05078C25.8691-1.01562 21.0156 3.84766 14.9707 3.84766ZM9.19922-7.05078C9.19922-6.5332 9.57031-6.17188 10.1172-6.17188L14.0625-6.17188L14.0625-2.2168C14.0625-1.67969 14.4336-1.29883 14.9512-1.29883C15.4883-1.29883 15.8594-1.66992 15.8594-2.2168L15.8594-6.17188L19.8145-6.17188C20.3516-6.17188 20.7324-6.5332 20.7324-7.05078C20.7324-7.59766 20.3613-7.96875 19.8145-7.96875L15.8594-7.96875L15.8594-11.9141C15.8594-12.4609 15.4883-12.8418 14.9512-12.8418C14.4336-12.8418 14.0625-12.4609 14.0625-11.9141L14.0625-7.96875L10.1172-7.96875C9.57031-7.96875 9.19922-7.59766 9.19922-7.05078Z"/>
  </g>
  <text style="stroke:none;fill:black;font-family:sans-serif;font-size:13;font-weight:bold;" transform="matrix(1 0 0 1 263 1953)">Design Variations</text>
  <text style="stroke:none;fill:black;font-family:sans-serif;font-size:13;" transform="matrix(1 0 0 1 263 1971)">Symbols are supported in up to nine weights and three scales.</text>
  <text style="stroke:none;fill:black;font-family:sans-serif;font-size:13;" transform="matrix(1 0 0 1 263 1989)">For optimal layout with text and other symbols, vertically align</text>
  <text style="stroke:none;fill:black;font-family:sans-serif;font-size:13;" transform="matrix(1 0 0 1 263 2007)">symbols with the adjacent text.</text>
  <line style="fill:none;stroke:#00AEEF;stroke-width:0.5;opacity:1.0;" x1="776" x2="776" y1="1919" y2="1933"/>
  <g transform="matrix(1 0 0 1 776 1933)">
   <path d="M3.31055 0.15625C3.82812 0.15625 4.08203-0.0390625 4.26758-0.585938L5.52734-4.0332L11.2891-4.0332L12.5488-0.585938C12.7344-0.0390625 12.9883 0.15625 13.4961 0.15625C14.0137 0.15625 14.3457-0.15625 14.3457-0.644531C14.3457-0.810547 14.3164-0.966797 14.2383-1.17188L9.6582-13.3691C9.43359-13.9648 9.0332-14.2676 8.4082-14.2676C7.80273-14.2676 7.39258-13.9746 7.17773-13.3789L2.59766-1.16211C2.51953-0.957031 2.49023-0.800781 2.49023-0.634766C2.49023-0.146484 2.80273 0.15625 3.31055 0.15625ZM6.00586-5.51758L8.37891-12.0898L8.42773-12.0898L10.8008-5.51758Z"/>
  </g>
  <line style="fill:none;stroke:#00AEEF;stroke-width:0.5;opacity:1.0;" x1="793.197" x2="793.197" y1="1919" y2="1933"/>
  <text style="stroke:none;fill:black;font-family:sans-serif;font-size:13;font-weight:bold;" transform="matrix(1 0 0 1 776 1953)">Margins</text>
  <text style="stroke:none;fill:black;font-family:sans-serif;font-size:13;" transform="matrix(1 0 0 1 776 1971)">Leading and trailing margins on the left and right side of each symbol</text>
  <text style="stroke:none;fill:black;font-family:sans-serif;font-size:13;" transform="matrix(1 0 0 1 776 1989)">can be adjusted by modifying the x-location of the margin guidelines.</text>
  <text style="stroke:none;fill:black;font-family:sans-serif;font-size:13;" transform="matrix(1 0 0 1 776 2007)">Modifications are automatically applied proportionally to all</text>
  <text style="stroke:none;fill:black;font-family:sans-serif;font-size:13;" transform="matrix(1 0 0 1 776 2025)">scales and weights.</text>
  <g transform="matrix(1 0 0 1 1289 1933)">
   <path d="M2.8418 1.86523L4.54102 3.57422C5.40039 4.44336 6.38672 4.38477 7.31445 3.35938L18.0078-8.42773L17.041-9.4043L6.42578 2.27539C6.07422 2.67578 5.74219 2.77344 5.27344 2.30469L4.10156 1.14258C3.63281 0.683594 3.74023 0.341797 4.14062-0.0195312L15.6152-10.8203L14.6387-11.7871L3.04688-0.898438C2.06055 0.0195312 1.98242 0.996094 2.8418 1.86523ZM9.25781-16.3281C8.83789-15.918 8.80859-15.3418 9.04297-14.9512C9.27734-14.5898 9.73633-14.3555 10.3809-14.5215C11.8457-14.8633 13.3691-14.9219 14.7949-13.9844L14.209-12.5293C13.8672-11.6992 14.043-11.1133 14.5801-10.5664L16.875-8.25195C17.3633-7.76367 17.7734-7.74414 18.3398-7.8418L19.4043-8.03711L20.0684-7.36328L20.0293-6.80664C19.9902-6.30859 20.1172-5.92773 20.6055-5.44922L21.3672-4.70703C21.8457-4.22852 22.4609-4.19922 22.9297-4.66797L25.8398-7.58789C26.3086-8.05664 26.2891-8.65234 25.8105-9.13086L25.0391-9.89258C24.5605-10.3711 24.1895-10.5273 23.7109-10.4883L23.1348-10.4395L22.4902-11.0742L22.7344-12.1973C22.8613-12.7637 22.7051-13.2031 22.1191-13.7891L19.9219-15.9766C16.582-19.2969 12.1484-19.2188 9.25781-16.3281ZM10.752-15.957C13.1836-17.7344 16.4746-17.4316 18.7012-15.2051L21.1328-12.793C21.3672-12.5586 21.4062-12.373 21.3379-12.0312L21.0156-10.5469L22.5195-9.0625L23.5059-9.12109C23.7598-9.13086 23.8379-9.11133 24.0332-8.91602L24.6094-8.33984L22.168-5.89844L21.5918-6.47461C21.3965-6.66992 21.3672-6.74805 21.377-7.01172L21.4453-7.98828L19.9512-9.47266L18.4277-9.21875C18.1055-9.15039 17.959-9.17969 17.7148-9.41406L15.7129-11.416C15.459-11.6504 15.4297-11.8164 15.5859-12.1875L16.4648-14.2773C14.9023-15.7324 12.8711-16.3574 10.8398-15.7617C10.6836-15.7227 10.625-15.8496 10.752-15.957Z"/>
  </g>
  <text style="stroke:none;fill:black;font-family:sans-serif;font-size:13;font-weight:bold;" transform="matrix(1 0 0 1 1289 1953)">Exporting</text>
  <text style="stroke:none;fill:black;font-family:sans-serif;font-size:13;" transform="matrix(1 0 0 1 1289 1971)">Symbols should be outlined when exporting to ensure the</text>
  <text style="stroke:none;fill:black;font-family:sans-serif;font-size:13;" transform="matrix(1 0 0 1 1289 1989)">design is preserved when submitting to Xcode.</text>
  <text id="template-version" style="stroke:none;fill:black;font-family:sans-serif;font-size:13;text-anchor:end;" transform="matrix(1 0 0 1 3036 1933)">Template v.4.0</text>
  <text style="stroke:none;fill:black;font-family:sans-serif;font-size:13;text-anchor:end;" transform="matrix(1 0 0 1 3036 1951)">Requires Xcode 14 or greater</text>
  <text id="descriptive-name" style="stroke:none;fill:black;font-family:sans-serif;font-size:13;text-anchor:end;" transform="matrix(1 0 0 1 3036 1969)">Generated from exclamationmark.circle.fill</text>
  <text style="stroke:none;fill:black;font-family:sans-serif;font-size:13;text-anchor:end;" transform="matrix(1 0 0 1 3036 1987)">Typeset at 100 points</text>
  <text style="stroke:none;fill:black;font-family:sans-serif;font-size:13;" transform="matrix(1 0 0 1 263 726)">Small</text>
  <text style="stroke:none;fill:black;font-family:sans-serif;font-size:13;" transform="matrix(1 0 0 1 263 1156)">Medium</text>
  <text style="stroke:none;fill:black;font-family:sans-serif;font-size:13;" transform="matrix(1 0 0 1 263 1586)">Large</text>
 </g>
 <g id="Guides">
  <g id="H-reference" style="fill:#27AAE1;stroke:none;" transform="matrix(1 0 0 1 339 696)">
   <path d="M0.993654 0L3.63775 0L29.3281-67.1323L30.0303-67.1323L30.0303-70.459L28.1226-70.459ZM11.6885-24.4799L46.9815-24.4799L46.2315-26.7285L12.4385-26.7285ZM55.1196 0L57.7637 0L30.6382-70.459L29.4326-70.459L29.4326-67.1323Z"/>
  </g>
  <line id="Baseline-S" style="fill:none;stroke:#27AAE1;opacity:1;stroke-width:0.5;" x1="263" x2="3036" y1="696" y2="696"/>
  <line id="Capline-S" style="fill:none;stroke:#27AAE1;opacity:1;stroke-width:0.5;" x1="263" x2="3036" y1="625.541" y2="625.541"/>
  <g id="H-reference" style="fill:#27AAE1;stroke:none;" transform="matrix(1 0 0 1 339 1126)">
   <path d="M0.993654 0L3.63775 0L29.3281-67.1323L30.0303-67.1323L30.0303-70.459L28.1226-70.459ZM11.6885-24.4799L46.9815-24.4799L46.2315-26.7285L12.4385-26.7285ZM55.1196 0L57.7637 0L30.6382-70.459L29.4326-70.459L29.4326-67.1323Z"/>
  </g>
  <line id="Baseline-M" style="fill:none;stroke:#27AAE1;opacity:1;stroke-width:0.5;" x1="263" x2="3036" y1="1126" y2="1126"/>
  <line id="Capline-M" style="fill:none;stroke:#27AAE1;opacity:1;stroke-width:0.5;" x1="263" x2="3036" y1="1055.54" y2="1055.54"/>
  <g id="H-reference" style="fill:#27AAE1;stroke:none;" transform="matrix(1 0 0 1 339 1556)">
   <path d="M0.993654 0L3.63775 0L29.3281-67.1323L30.0303-67.1323L30.0303-70.459L28.1226-70.459ZM11.6885-24.4799L46.9815-24.4799L46.2315-26.7285L12.4385-26.7285ZM55.1196 0L57.7637 0L30.6382-70.459L29.4326-70.459L29.4326-67.1323Z"/>
  </g>
  <line id="Baseline-L" style="fill:none;stroke:#27AAE1;opacity:1;stroke-width:0.5;" x1="263" x2="3036" y1="1556" y2="1556"/>
  <line id="Capline-L" style="fill:none;stroke:#27AAE1;opacity:1;stroke-width:0.5;" x1="263" x2="3036" y1="1485.54" y2="1485.54"/>
  <line id="left-margin-Regular-M" style="fill:none;stroke:#00AEEF;stroke-width:0.5;opacity:1.0;" x1="1391.32" x2="1391.32" y1="1030.79" y2="1150.12"/>
  <line id="right-margin-Regular-M" style="fill:none;stroke:#00AEEF;stroke-width:0.5;opacity:1.0;" x1="1508.37" x2="1508.37" y1="1030.79" y2="1150.12"/>
 </g>
 <g id="Symbols">
  <g id="Black-L" transform="matrix(1 0 0 1 2854.19 1556)">
   <path d="M79.1958 32.7257C116.56 32.7257 147.154 2.15259 147.154-35.2113C147.154-72.5752 116.539-103.148 79.175-103.148C41.8307-103.148 11.2588-72.5752 11.2588-35.2113C11.2588 2.15259 41.8515 32.7257 79.1958 32.7257ZM79.2542-27.1747C74.0758-27.1747 71.0319-30.0082 70.7191-35.133L69.5872-58.2398C69.2743-63.8539 73.2284-67.6119 79.175-67.6119C85.1215-67.6119 89.0964-63.833 88.7836-58.219L87.6517-35.2498C87.3388-29.9874 84.3534-27.1747 79.2542-27.1747ZM79.2542-3.34052C73.5073-3.34052 69.1579-6.65499 69.1579-12.1271C69.1579-17.5431 73.4865-20.876 79.2542-20.876C85.0415-20.876 89.2545-17.5055 89.2545-12.1271C89.2545-6.63418 85.0207-3.34052 79.2542-3.34052Z"/>
  </g>
  <g id="Heavy-L" transform="matrix(1 0 0 1 2558.42 1556)">
   <path d="M78.2532 31.7694C115.056 31.7694 145.278 1.57794 145.278-35.2251C145.278-72.0281 115.026-102.22 78.2231-102.22C41.4446-102.22 11.2588-72.0281 11.2588-35.2251C11.2588 1.57794 41.4748 31.7694 78.2532 31.7694ZM78.2979-26.3185C73.6236-26.3185 70.8941-28.911 70.6408-33.5631L69.5812-59.3159C69.3279-64.3608 72.9003-67.7692 78.2231-67.7692C83.5458-67.7692 87.1484-64.3306 86.8951-59.2857L85.8355-33.6523C85.5822-28.8808 82.8973-26.3185 78.2979-26.3185ZM78.2979-3.2102C73.0617-3.2102 68.9974-6.42644 68.9974-11.4529C68.9974-16.4459 73.0315-19.6811 78.2979-19.6811C83.5888-19.6811 87.5393-16.4314 87.5393-11.4529C87.5393-6.39625 83.5586-3.2102 78.2979-3.2102Z"/>
  </g>
  <g id="Bold-L" transform="matrix(1 0 0 1 2262.89 1556)">
   <path d="M77.0704 30.5711C113.182 30.5711 142.92 0.870872 142.92-35.2405C142.92-71.3519 113.144-101.052 77.0324-101.052C40.9458-101.052 11.2588-71.3519 11.2588-35.2405C11.2588 0.870872 40.9838 30.5711 77.0704 30.5711ZM77.0996-25.3848C73.0776-25.3848 70.7399-27.6702 70.5559-31.7159L69.5958-60.4367C69.4118-64.7672 72.4931-67.7229 77.0324-67.7229C81.5717-67.7229 84.691-64.7292 84.507-60.3987L83.5469-31.7743C83.3629-27.6322 81.0544-25.3848 77.0996-25.3848ZM77.0996-3.22769C72.4936-3.22769 68.8125-6.29121 68.8125-10.7495C68.8125-15.2051 72.4556-18.2801 77.0996-18.2801C81.7684-18.2801 85.3662-15.2139 85.3662-10.7495C85.3662-6.25322 81.7304-3.22769 77.0996-3.22769Z"/>
  </g>
  <g id="Semibold-L" transform="matrix(1 0 0 1 1966.99 1556)">
   <path d="M76.2549 29.745C111.889 29.745 141.294 0.383422 141.294-35.2511C141.294-70.8857 111.846-100.247 76.2116-100.247C40.6019-100.247 11.2588-70.8857 11.2588-35.2511C11.2588 0.383422 40.6453 29.745 76.2549 29.745ZM76.2735-24.7412C72.7012-24.7412 70.6336-26.8148 70.4974-30.4425L69.606-61.2093C69.4697-65.0474 72.2123-67.6909 76.2116-67.6909C80.2108-67.6909 82.9968-65.0041 82.8606-61.1659L81.9692-30.4796C81.8329-26.7714 79.7839-24.7412 76.2735-24.7412ZM76.2735-3.23975C72.1019-3.23975 68.6851-6.19799 68.6851-10.2646C68.6851-14.3497 72.0585-17.3143 76.2735-17.3143C80.5134-17.3143 83.8681-14.3745 83.8681-10.2646C83.8681-6.15462 80.47-3.23975 76.2735-3.23975Z"/>
  </g>
  <g id="Medium-L" transform="matrix(1 0 0 1 1670.9 1556)">
   <path d="M75.6366 29.1187C110.91 29.1187 140.062 0.0138167 140.062-35.2592C140.062-70.5322 110.862-99.637 75.5892-99.637C40.3412-99.637 11.2588-70.5322 11.2588-35.2592C11.2588 0.0138167 40.3886 29.1187 75.6366 29.1187ZM75.6471-24.2531C72.4158-24.2531 70.553-26.1662 70.453-29.4769L69.6136-61.7952C69.5136-65.2599 71.9995-67.6667 75.5892-67.6667C79.1789-67.6667 81.7122-65.2124 81.6122-61.7477L80.7729-29.4979C80.6728-26.1187 78.8206-24.2531 75.6471-24.2531ZM75.6471-3.24889C71.8049-3.24889 68.5885-6.1273 68.5885-9.89699C68.5885-13.7011 71.7575-16.582 75.6471-16.582C79.5618-16.582 82.7322-13.738 82.7322-9.89699C82.7322-6.07986 79.5143-3.24889 75.6471-3.24889Z"/>
  </g>
  <g id="Regular-L" transform="matrix(1 0 0 1 1374.99 1556)">
   <path d="M74.8301 28.3017C109.632 28.3017 138.454-0.468277 138.454-35.2697C138.454-70.0711 109.579-98.8411 74.7774-98.8411C40.0011-98.8411 11.2588-70.0711 11.2588-35.2697C11.2588-0.468277 40.0538 28.3017 74.8301 28.3017ZM74.8301-23.6165C72.0435-23.6165 70.4479-25.3202 70.3951-28.2175L69.6236-62.5593C69.5709-65.537 71.7218-67.6352 74.7774-67.6352C77.8329-67.6352 80.0366-65.4842 79.9839-62.5066L79.2124-28.2175C79.1597-25.2674 77.564-23.6165 74.8301-23.6165ZM74.8301-3.26081C71.4176-3.26081 68.4625-6.0351 68.4625-9.41744C68.4625-12.8551 71.3648-15.6268 74.8301-15.6268C78.3206-15.6268 81.2506-12.9079 81.2506-9.41744C81.2506-5.98234 78.2678-3.26081 74.8301-3.26081Z"/>
  </g>
  <g id="Light-L" transform="matrix(1 0 0 1 1079.2 1556)">
   <path d="M73.9141 27.3856C108.257 27.3856 136.603-0.926323 136.603-35.2697C136.603-69.6131 108.224-97.925 73.8804-97.925C39.5239-97.925 11.2588-69.6131 11.2588-35.2697C11.2588-0.926323 39.5576 27.3856 73.9141 27.3856ZM73.9141-23.7882C71.7572-23.7882 70.4479-25.2248 70.4142-27.5686L69.7763-61.9677C69.7427-64.3919 71.4355-66.0511 73.8804-66.0511C76.3252-66.0511 78.0518-64.3582 78.0181-61.934L77.3803-27.5686C77.3466-25.1911 76.0372-23.7882 73.9141-23.7882ZM73.9141-4.42501C70.9214-4.42501 68.4243-6.89394 68.4243-9.78006C68.4243-12.7597 70.8877-15.1688 73.9141-15.1688C76.9273-15.1688 79.4375-12.7934 79.4375-9.78006C79.4375-6.86026 76.8937-4.42501 73.9141-4.42501Z"/>
  </g>
  <g id="Thin-L" transform="matrix(1 0 0 1 783.716 1556)">
   <path d="M72.7024 26.174C106.44 26.174 134.155-1.53213 134.155-35.2697C134.155-69.0073 106.432-96.7134 72.694-96.7134C38.8929-96.7134 11.2588-69.0073 11.2588-35.2697C11.2588-1.53213 38.9013 26.174 72.7024 26.174ZM72.7024-24.0154C71.3786-24.0154 70.4479-25.0986 70.4394-26.7103L69.9783-61.1852C69.9698-62.8774 71.0569-63.956 72.694-63.956C74.3311-63.956 75.4266-62.8689 75.4182-61.1767L74.957-26.7103C74.9486-25.0901 74.0179-24.0154 72.7024-24.0154ZM72.7024-5.96476C70.2651-5.96476 68.3738-8.02982 68.3738-10.2597C68.3738-12.6335 70.2567-14.563 72.7024-14.563C75.0847-14.563 77.0395-12.6419 77.0395-10.2597C77.0395-8.02139 75.0763-5.96476 72.7024-5.96476Z"/>
  </g>
  <g id="Ultralight-L" transform="matrix(1 0 0 1 487.631 1556)">
   <path d="M72.0819 25.5534C105.509 25.5534 132.9-1.84242 132.9-35.2697C132.9-68.697 105.514-96.0928 72.0864-96.0928C38.5697-96.0928 11.2588-68.697 11.2588-35.2697C11.2588-1.84242 38.5652 25.5534 72.0819 25.5534ZM72.0819-24.1318C71.1847-24.1318 70.4479-25.0339 70.4523-26.2708L70.0817-60.7844C70.0862-62.1017 70.863-62.883 72.0864-62.883C73.3097-62.883 74.082-62.1062 74.0865-60.7889L73.7159-26.2708C73.7204-25.0384 72.9836-24.1318 72.0819-24.1318ZM72.0819-6.75342C69.9289-6.75342 68.3479-8.61161 68.3479-10.5053C68.3479-12.5688 69.9334-14.2527 72.0819-14.2527C74.1409-14.2527 75.8113-12.5643 75.8113-10.5053C75.8113-8.61611 74.1454-6.75342 72.0819-6.75342Z"/>
  </g>
  <g id="Black-M" transform="matrix(1 0 0 1 2871.36 1126)">
   <path d="M62.0422 18.116C91.4096 18.116 115.367-5.83621 115.367-35.2035C115.367-64.5709 91.4041-88.5231 62.0367-88.5231C32.6752-88.5231 8.72266-64.5709 8.72266-35.2035C8.72266-5.83621 32.6807 18.116 62.0422 18.116ZM62.0993-29.7483C57.7395-29.7483 55.1499-32.1144 54.8589-36.416L53.938-52.0516C53.647-56.8152 56.9764-59.9678 62.0367-59.9678C67.0971-59.9678 70.432-56.8097 70.141-52.0461L69.2201-36.5302C68.9291-32.1089 66.3966-29.7483 62.0993-29.7483ZM62.0993-10.7935C57.265-10.7935 53.7122-13.4044 53.7122-17.9596C53.7122-22.4572 57.2595-25.0741 62.0993-25.0741C66.9449-25.0741 70.3777-22.4056 70.3777-17.9596C70.3777-13.3989 66.9395-10.7935 62.0993-10.7935Z"/>
  </g>
  <g id="Heavy-M" transform="matrix(1 0 0 1 2575.48 1126)">
   <path d="M61.2053 17.2657C90.0667 17.2657 113.704-6.35571 113.704-35.217C113.704-64.0783 90.0502-87.6997 61.1889-87.6997C32.3418-87.6997 8.72266-64.0783 8.72266-35.217C8.72266-6.35571 32.3582 17.2657 61.2053 17.2657ZM61.249-28.8954C57.3238-28.8954 55.0151-31.0506 54.7806-34.9412L53.918-53.1581C53.6835-57.4164 56.682-60.2676 61.1889-60.2676C65.6959-60.2676 68.7108-57.4 68.4763-53.1417L67.6137-35.0284C67.3792-31.0342 65.1141-28.8954 61.249-28.8954ZM61.249-10.5587C56.8751-10.5587 53.5589-13.1018 53.5589-17.2671C53.5589-21.3934 56.8587-23.9483 61.249-23.9483C65.6534-23.9483 68.8682-21.3662 68.8682-17.2671C68.8682-13.0853 65.637-10.5587 61.249-10.5587Z"/>
  </g>
  <g id="Bold-M" transform="matrix(1 0 0 1 2279.69 1126)">
   <path d="M60.2692 16.3144C88.5644 16.3144 111.844-6.93686 111.844-35.2321C111.844-63.5273 88.5358-86.7786 60.2405-86.7786C31.9688-86.7786 8.72266-63.5273 8.72266-35.2321C8.72266-6.93686 31.9974 16.3144 60.2692 16.3144ZM60.2977-27.9414C56.8589-27.9414 54.8644-29.8606 54.693-33.2914L53.8957-54.3959C53.7243-58.0889 56.3527-60.603 60.2405-60.603C64.1284-60.603 66.7854-58.0602 66.614-54.3673L65.8167-33.3485C65.6453-29.8319 63.6794-27.9414 60.2977-27.9414ZM60.2977-10.2961C56.439-10.2961 53.3874-12.7632 53.3874-16.4924C53.3874-20.2033 56.4104-22.6888 60.2977-22.6888C64.2086-22.6888 67.1796-20.2034 67.1796-16.4924C67.1796-12.7346 64.1799-10.2961 60.2977-10.2961Z"/>
  </g>
  <g id="Semibold-M" transform="matrix(1 0 0 1 1983.62 1126)">
   <path d="M59.6238 15.6586C87.5288 15.6586 110.562-7.33749 110.562-35.2425C110.562-63.1475 87.4917-86.1436 59.5867-86.1436C31.7117-86.1436 8.72266-63.1475 8.72266-35.2425C8.72266-7.33749 31.7487 15.6586 59.6238 15.6586ZM59.6419-27.2837C56.5383-27.2837 54.7605-29.0402 54.6326-32.154L53.8803-55.2492C53.7524-58.5525 56.1257-60.8342 59.5867-60.8342C63.0477-60.8342 65.458-58.5154 65.3302-55.2122L64.5778-32.1903C64.45-29.0031 62.6903-27.2837 59.6419-27.2837ZM59.6419-10.115C56.1383-10.115 53.2691-12.5298 53.2691-15.9583C53.2691-19.3829 56.1013-21.8206 59.6419-21.8206C63.2125-21.8206 66.0155-19.4018 66.0155-15.9583C66.0155-12.4927 63.1755-10.115 59.6419-10.115Z"/>
  </g>
  <g id="Medium-M" transform="matrix(1 0 0 1 1687.4 1126)">
   <path d="M59.1344 15.1614C86.7435 15.1614 109.59-7.64127 109.59-35.2504C109.59-62.8595 86.7001-85.6621 59.091-85.6621C31.5167-85.6621 8.72266-62.8595 8.72266-35.2504C8.72266-7.64127 31.5601 15.1614 59.1344 15.1614ZM59.1447-26.785C56.2953-26.785 54.6817-28.4181 54.5869-31.2916L53.8686-55.8963C53.7738-58.904 55.9536-61.0096 59.091-61.0096C62.2284-61.0096 64.4516-58.8606 64.3568-55.8528L63.6385-31.3122C63.5437-28.3747 61.9404-26.785 59.1447-26.785ZM59.1447-9.97768C55.9103-9.97768 53.1794-12.3528 53.1794-15.5534C53.1794-18.7609 55.8669-21.1622 59.1447-21.1622C62.4573-21.1622 65.1328-18.794 65.1328-15.5534C65.1328-12.3094 62.4138-9.97768 59.1447-9.97768Z"/>
  </g>
  <g id="Regular-M" transform="matrix(1 0 0 1 1391.32 1126)">
   <path d="M58.4961 14.5128C85.7192 14.5128 108.321-8.0375 108.321-35.2606C108.321-62.4838 85.6675-85.0341 58.4443-85.0341C31.2624-85.0341 8.72266-62.4838 8.72266-35.2606C8.72266-8.0375 31.3141 14.5128 58.4961 14.5128ZM58.4961-26.1345C55.9783-26.1345 54.5789-27.6067 54.5272-30.1668L53.8534-56.7402C53.8016-59.3625 55.729-61.2382 58.4443-61.2382C61.1596-61.2382 63.1388-59.3108 63.0871-56.6884L62.4133-30.1668C62.3615-27.555 60.9622-26.1345 58.4961-26.1345ZM58.4961-9.79859C55.613-9.79859 53.0625-12.122 53.0625-15.0252C53.0625-17.9495 55.5612-20.3035 58.4961-20.3035C61.4722-20.3035 63.9814-18.0012 63.9814-15.0252C63.9814-12.0702 61.4204-9.79859 58.4961-9.79859Z"/>
  </g>
  <g id="Light-M" transform="matrix(1 0 0 1 1095.44 1126)">
   <path d="M57.6748 13.6915C84.4872 13.6915 106.662-8.44816 106.662-35.2606C106.662-62.0731 84.4526-84.2128 57.6401-84.2128C30.8346-84.2128 8.72266-62.0731 8.72266-35.2606C8.72266-8.44816 30.8693 13.6915 57.6748 13.6915ZM57.6748-26.2885C55.7216-26.2885 54.5789-27.5212 54.5443-29.585L53.9902-56.2098C53.9556-58.3359 55.4724-59.818 57.6401-59.818C59.8079-59.818 61.3593-58.3012 61.3246-56.1751L60.7706-29.585C60.736-27.4865 59.5933-26.2885 57.6748-26.2885ZM57.6748-10.8424C55.1681-10.8424 53.0283-12.892 53.0283-15.3503C53.0283-17.8639 55.1335-19.8929 57.6748-19.8929C60.2231-19.8929 62.3559-17.8986 62.3559-15.3503C62.3559-12.8573 60.1884-10.8424 57.6748-10.8424Z"/>
  </g>
  <g id="Thin-M" transform="matrix(1 0 0 1 799.828 1126)">
   <path d="M56.5885 12.6052C82.8578 12.6052 104.466-8.9913 104.466-35.2606C104.466-61.53 82.8458-83.1265 56.5765-83.1265C30.2689-83.1265 8.72266-61.53 8.72266-35.2606C8.72266-8.9913 30.2809 12.6052 56.5885 12.6052ZM56.5885-26.4922C55.3821-26.4922 54.5789-27.408 54.5669-28.8155L54.1713-55.5082C54.1593-56.9781 55.1329-57.9397 56.5765-57.9397C58.0201-57.9397 59.0057-56.966 58.9937-55.4962L58.5981-28.8155C58.5861-27.396 57.7828-26.4922 56.5885-26.4922ZM56.5885-12.2228C54.5797-12.2228 52.983-13.9103 52.983-15.7803C52.983-17.7508 54.5677-19.3497 56.5885-19.3497C58.571-19.3497 60.206-17.7628 60.206-15.7803C60.206-13.8983 58.559-12.2228 56.5885-12.2228Z"/>
  </g>
  <g id="Ultralight-M" transform="matrix(1 0 0 1 503.679 1126)">
   <path d="M56.0321 12.0488C82.0233 12.0488 103.342-9.26949 103.342-35.2606C103.342-61.2518 82.0228-82.5701 56.0317-82.5701C29.9791-82.5701 8.72266-61.2518 8.72266-35.2606C8.72266-9.26949 29.9795 12.0488 56.0321 12.0488ZM56.0321-26.5965C55.2083-26.5965 54.5789-27.3501 54.5785-28.4214L54.264-55.1489C54.2636-56.2826 54.959-56.9776 56.0317-56.9776C57.1043-56.9776 57.8002-56.2822 57.7998-55.1485L57.4853-28.4214C57.4849-27.3496 56.8555-26.5965 56.0321-26.5965ZM56.0321-12.9299C54.2783-12.9299 52.9598-14.4319 52.9598-16.0005C52.9598-17.6928 54.2779-19.0715 56.0321-19.0715C57.7249-19.0715 59.1048-17.6932 59.1048-16.0005C59.1048-14.4315 57.7244-12.9299 56.0321-12.9299Z"/>
  </g>
  <g id="Black-S" transform="matrix(1 0 0 1 2884.57 696)">
   <path d="M48.8281 6.78711C71.9727 6.78711 90.8203-12.0605 90.8203-35.2051C90.8203-58.3496 71.9727-77.1973 48.8281-77.1973C25.6836-77.1973 6.83594-58.3496 6.83594-35.2051C6.83594-12.0605 25.6836 6.78711 48.8281 6.78711ZM48.877-31.2012C45.3613-31.2012 43.2617-33.1055 43.0176-36.5723L42.2852-48.0469C42.041-51.9043 44.7266-54.4434 48.8281-54.4434C52.9297-54.4434 55.6152-51.9043 55.3711-48.0469L54.6387-36.6699C54.3945-33.1055 52.3438-31.2012 48.877-31.2012ZM48.877-16.2109C44.9707-16.2109 42.1387-18.2617 42.1387-21.9238C42.1387-25.5371 44.9707-27.5879 48.877-27.5879C52.7832-27.5879 55.5176-25.4883 55.5176-21.9238C55.5176-18.2617 52.7832-16.2109 48.877-16.2109Z"/>
  </g>
  <g id="Heavy-S" transform="matrix(1 0 0 1 2588.47 696)">
   <path d="M48.2173 6.16479C70.9816 6.16479 89.6102-12.4524 89.6102-35.2166C89.6102-57.9808 70.97-76.598 48.2058-76.598C25.4531-76.598 6.83594-57.9808 6.83594-35.2166C6.83594-12.4524 25.4646 6.16479 48.2173 6.16479ZM48.2546-30.4521C45.0386-30.4521 43.1465-32.2066 42.9484-35.3852L42.2506-49.061C42.0525-52.5497 44.5076-54.8813 48.2058-54.8813C51.904-54.8813 54.3706-52.5381 54.1725-49.0495L53.4747-35.4599C53.2767-32.195 51.4218-30.4521 48.2546-30.4521ZM48.2546-15.8767C44.6941-15.8767 42.0119-17.9045 42.0119-21.29C42.0119-24.6382 44.6826-26.6775 48.2546-26.6775C51.8382-26.6775 54.4343-24.6124 54.4343-21.29C54.4343-17.8929 51.8267-15.8767 48.2546-15.8767Z"/>
  </g>
  <g id="Bold-S" transform="matrix(1 0 0 1 2292.43 696)">
   <path d="M47.5342 5.46875C69.873 5.46875 88.2568-12.8906 88.2568-35.2295C88.2568-57.5684 69.8486-75.9277 47.5098-75.9277C25.1953-75.9277 6.83594-57.5684 6.83594-35.2295C6.83594-12.8906 25.2197 5.46875 47.5342 5.46875ZM47.5586-29.6143C44.6777-29.6143 43.0176-31.2012 42.8711-34.0576L42.2119-50.1953C42.0654-53.2715 44.2627-55.3711 47.5098-55.3711C50.7568-55.3711 52.9785-53.2471 52.832-50.1709L52.1729-34.1064C52.0264-31.1768 50.3906-29.6143 47.5586-29.6143ZM47.5586-15.5029C44.3848-15.5029 41.8701-17.5049 41.8701-20.5811C41.8701-23.6328 44.3604-25.6592 47.5586-25.6592C50.7812-25.6592 53.2227-23.6328 53.2227-20.5811C53.2227-17.4805 50.7568-15.5029 47.5586-15.5029Z"/>
  </g>
  <g id="Semibold-S" transform="matrix(1 0 0 1 1996.19 696)">
   <path d="M47.0632 4.98887C69.1088 4.98887 87.3237-13.1928 87.3237-35.2384C87.3237-57.284 69.0755-75.4656 47.0299-75.4656C25.0176-75.4656 6.83594-57.284 6.83594-35.2384C6.83594-13.1928 25.0509 4.98887 47.0632 4.98887ZM47.0787-29.0366C44.4289-29.0366 42.9287-30.508 42.8178-33.1423L42.1853-50.9773C42.0743-53.7691 44.0938-55.7088 47.0299-55.7088C49.9659-55.7088 52.0187-53.7358 51.9078-50.944L51.2753-33.1733C51.1644-30.4747 49.6797-29.0366 47.0787-29.0366ZM47.0787-15.2452C44.1715-15.2452 41.7724-17.2294 41.7724-20.0923C41.7724-22.9396 44.1382-24.9571 47.0787-24.9571C50.0525-24.9571 52.3873-22.9574 52.3873-20.0923C52.3873-17.1961 50.0192-15.2452 47.0787-15.2452Z"/>
  </g>
  <g id="Medium-S" transform="matrix(1 0 0 1 1699.83 696)">
   <path d="M46.7061 4.625C68.5293 4.625 86.6162-13.4219 86.6162-35.2451C86.6162-57.0684 68.4893-75.1152 46.666-75.1152C24.8828-75.1152 6.83594-57.0684 6.83594-35.2451C6.83594-13.4219 24.9229 4.625 46.7061 4.625ZM46.7148-28.5986C44.2402-28.5986 42.8613-29.9824 42.7773-32.4482L42.165-51.5703C42.0811-54.1465 43.9658-55.9648 46.666-55.9648C49.3662-55.9648 51.291-54.1064 51.207-51.5303L50.5947-32.4658C50.5107-29.9424 49.1406-28.5986 46.7148-28.5986ZM46.7148-15.0498C44.0098-15.0498 41.6982-17.0205 41.6982-19.7217C41.6982-22.4141 43.9697-24.4248 46.7148-24.4248C49.5-24.4248 51.7539-22.4453 51.7539-19.7217C51.7539-16.9805 49.46-15.0498 46.7148-15.0498Z"/>
  </g>
  <g id="Regular-S" transform="matrix(1 0 0 1 1403.58 696)">
   <path d="M46.2402 4.15039C67.7734 4.15039 85.6934-13.7207 85.6934-35.2539C85.6934-56.7871 67.7246-74.6582 46.1914-74.6582C24.707-74.6582 6.83594-56.7871 6.83594-35.2539C6.83594-13.7207 24.7559 4.15039 46.2402 4.15039ZM46.2402-28.0273C43.9941-28.0273 42.7734-29.2969 42.7246-31.543L42.1387-52.3438C42.0898-54.6387 43.7988-56.2988 46.1914-56.2988C48.584-56.2988 50.3418-54.5898 50.293-52.2949L49.707-31.543C49.6582-29.248 48.4375-28.0273 46.2402-28.0273ZM46.2402-14.7949C43.7988-14.7949 41.6016-16.748 41.6016-19.2383C41.6016-21.7285 43.75-23.7305 46.2402-23.7305C48.7793-23.7305 50.9277-21.7773 50.9277-19.2383C50.9277-16.6992 48.7305-14.7949 46.2402-14.7949Z"/>
  </g>
  <g id="Light-S" transform="matrix(1 0 0 1 1107.6 696)">
   <path d="M45.5137 3.42383C66.6836 3.42383 84.2251-14.084 84.2251-35.2539C84.2251-56.4238 66.6499-73.9316 45.48-73.9316C24.3286-73.9316 6.83594-56.4238 6.83594-35.2539C6.83594-14.084 24.3623 3.42383 45.5137 3.42383ZM45.5137-28.1636C43.7671-28.1636 42.7734-29.2212 42.7397-31.0283L42.2598-51.8745C42.2261-53.7305 43.5718-55.0425 45.48-55.0425C47.3882-55.0425 48.7676-53.6968 48.7339-51.8408L48.2539-31.0283C48.2202-29.1875 47.2266-28.1636 45.5137-28.1636ZM45.5137-15.7183C43.4053-15.7183 41.5713-17.4292 41.5713-19.5259C41.5713-21.6528 43.3716-23.3672 45.5137-23.3672C47.6743-23.3672 49.4898-21.6865 49.4898-19.5259C49.4898-17.3955 47.6406-15.7183 45.5137-15.7183Z"/>
  </g>
  <g id="Thin-S" transform="matrix(1 0 0 1 811.863 696)">
   <path d="M44.5527 2.4629C65.2422 2.4629 82.2832-14.5644 82.2832-35.2539C82.2832-55.9434 65.2285-72.9707 44.5391-72.9707C23.8281-72.9707 6.83594-55.9434 6.83594-35.2539C6.83594-14.5644 23.8418 2.4629 44.5527 2.4629ZM44.5527-28.3437C43.4668-28.3437 42.7734-29.1211 42.7598-30.3477L42.4199-51.2539C42.4062-52.5293 43.2715-53.3809 44.5391-53.3809C45.8067-53.3809 46.6856-52.5156 46.6719-51.2402L46.3321-30.3477C46.3184-29.1074 45.625-28.3437 44.5527-28.3437ZM44.5527-16.9394C42.8848-16.9394 41.5313-18.3301 41.5313-19.9062C41.5313-21.5527 42.8711-22.8867 44.5527-22.8867C46.2129-22.8867 47.5879-21.5664 47.5879-19.9062C47.5879-18.3164 46.1992-16.9394 44.5527-16.9394Z"/>
  </g>
  <g id="Ultralight-S" transform="matrix(1 0 0 1 515.649 696)">
   <path d="M44.0606 1.97072C64.5039 1.97072 81.2886-14.8105 81.2886-35.2539C81.2886-55.6973 64.5005-72.4785 44.0571-72.4785C23.5718-72.4785 6.83594-55.6973 6.83594-35.2539C6.83594-14.8105 23.5752 1.97072 44.0606 1.97072ZM44.0606-28.436C43.313-28.436 42.7734-29.0698 42.77-29.999L42.502-50.936C42.4985-51.9141 43.1177-52.5298 44.0571-52.5298C44.9966-52.5298 45.6192-51.9107 45.6158-50.9326L45.3477-29.999C45.3443-29.0664 44.8047-28.436 44.0606-28.436ZM44.0606-17.5649C42.6182-17.5649 41.5107-18.7915 41.5107-20.1011C41.5107-21.5015 42.6148-22.6406 44.0606-22.6406C45.4644-22.6406 46.6138-21.5049 46.6138-20.1011C46.6138-18.7881 45.461-17.5649 44.0606-17.5649Z"/>
  </g>
 </g>
</svg>
